<svg width="80" height="27" viewBox="0 0 80 27" fill="none" xmlns="http://www.w3.org/2000/svg">
<path d="M12.0149 26.1096C5.33227 26.1096 0 21.0661 0 14.41C0 7.78829 5.33227 2.71046 12.0149 2.71046C16.3084 2.71046 19.8748 4.76904 21.8138 7.92552L19.0438 9.94979C17.4511 7.51381 15.0966 6.0385 12.0495 6.0385C7.34053 6.0385 3.80876 9.57239 3.80876 14.41C3.80876 19.2477 7.34053 22.7816 12.0495 22.7816C15.0966 22.7816 17.4511 21.3063 19.0438 18.8703L21.8138 20.8946C19.9094 24.051 16.3084 26.1096 12.0149 26.1096Z" fill="white"/>
<path d="M23.8843 25.7322V8.88619H27.5199V25.7322H23.8843ZM23.2611 2.60753C23.2611 1.26946 24.3344 0.240168 25.7194 0.240168C27.0698 0.240168 28.1432 1.26946 28.1432 2.60753C28.1432 3.9113 27.0698 4.94059 25.7194 4.94059C24.3344 4.94059 23.2611 3.9113 23.2611 2.60753Z" fill="white"/>
<path d="M30.0073 25.7322V8.88619H33.4005V11.082C34.6124 9.53808 36.4129 8.71465 38.3519 8.71465C38.9406 8.71465 39.3561 8.78327 39.7369 8.88619V12.077H38.6289C35.9282 12.077 33.6429 13.6209 33.6429 16.7431V25.7322H30.0073Z" fill="white"/>
<path d="M48.5052 26.1096C43.4846 26.1096 39.5027 22.2669 39.5027 17.2921C39.5027 12.3515 43.4846 8.50879 48.5052 8.50879C51.7253 8.50879 54.2184 10.0527 55.6726 12.4201L53.1103 14.41C52.0023 12.8661 50.5827 11.8368 48.5398 11.8368C45.4236 11.8368 43.2076 14.2385 43.2076 17.2921C43.2076 20.4142 45.4236 22.7816 48.5398 22.7816C50.5481 22.7816 51.9677 21.7866 53.1103 20.2427L55.6726 22.1983C54.1837 24.5657 51.6907 26.1096 48.5052 26.1096Z" fill="white"/>
<path d="M57.6032 25.7322V0H61.2389V25.7322H57.6032Z" fill="white"/>
<path d="M72.4864 26.1096C67.2233 26.1096 63.3453 22.3013 63.3453 17.3264C63.3453 12.3858 67.1887 8.50879 72.1401 8.50879C76.676 8.50879 80 11.8025 80 16.2285C80 17.1548 79.8269 18.0469 79.723 18.4929H67.0502C67.535 21.272 69.6817 22.9188 72.5902 22.9188C74.5639 22.9188 76.122 22.164 77.5416 20.9289L79.2729 23.3992C77.4724 25.0803 75.1871 26.1096 72.4864 26.1096ZM67.1195 15.6795H76.3644C76.2951 13.0377 74.3215 11.5623 72.0016 11.5623C69.6125 11.5623 67.6735 13.1749 67.1195 15.6795Z" fill="white"/>
</svg>
