<svg width="32" height="32" viewBox="0 0 32 32" fill="none" xmlns="http://www.w3.org/2000/svg">
<path d="M29.708 10.7926L22.208 3.29255C22.1151 3.19958 22.0048 3.12582 21.8834 3.07549C21.762 3.02517 21.6319 2.99927 21.5005 2.99927C21.3691 2.99927 21.239 3.02517 21.1176 3.07549C20.9962 3.12582 20.8859 3.19958 20.793 3.29255L4.63925 19.4463C3.58966 20.4959 3 21.9195 3 23.4038C3 24.8882 3.58966 26.3117 4.63925 27.3613C5.68884 28.4109 7.1124 29.0006 8.59675 29.0006C10.0811 29.0006 11.5047 28.4109 12.5543 27.3613L26.5405 13.3751L29.3167 12.4501C29.4786 12.3962 29.6239 12.3019 29.739 12.1761C29.8541 12.0502 29.9352 11.897 29.9744 11.7311C30.0136 11.5651 30.0097 11.3918 29.9631 11.2278C29.9164 11.0638 29.8286 10.9144 29.708 10.7938V10.7926ZM11.1392 25.9463C10.4608 26.6002 9.55274 26.9617 8.61049 26.953C7.66823 26.9443 6.76703 26.5661 6.10073 25.8998C5.43443 25.2335 5.05626 24.3323 5.04757 23.3901C5.03887 22.4478 5.40035 21.5398 6.05425 20.8613L9.65425 17.2613C10.713 16.8988 12.373 16.7613 14.538 17.8863C15.863 18.5788 17.0605 18.8863 18.108 18.9776L11.1392 25.9463ZM25.6842 11.5513C25.5369 11.6003 25.4029 11.6828 25.293 11.7926L20.3468 16.7388C19.288 17.1013 17.628 17.2388 15.463 16.1138C14.138 15.4213 12.9405 15.1138 11.893 15.0226L21.5005 5.4138L27.1493 11.0626L25.6842 11.5513Z" fill="#995C00"/>
</svg>
