<svg width="32" height="32" viewBox="0 0 32 32" fill="none" xmlns="http://www.w3.org/2000/svg">
<path d="M14.6568 19.74C15.9971 18.8477 17.0146 17.5478 17.5589 16.0326C18.1033 14.5173 18.1455 12.867 17.6794 11.3259C17.2134 9.78471 16.2637 8.43445 14.9708 7.47478C13.678 6.5151 12.1106 5.99695 10.5006 5.99695C8.89046 5.99695 7.3231 6.5151 6.03026 7.47478C4.73743 8.43445 3.78775 9.78471 3.32166 11.3259C2.85558 12.867 2.89783 14.5173 3.44217 16.0326C3.98652 17.5478 5.00405 18.8477 6.3443 19.74C3.91992 20.6335 1.84943 22.287 0.4418 24.4537C0.36782 24.5637 0.316433 24.6873 0.290627 24.8172C0.264821 24.9472 0.265109 25.0811 0.291477 25.2109C0.317844 25.3408 0.369764 25.4641 0.444219 25.5738C0.518673 25.6834 0.614177 25.7772 0.725178 25.8496C0.83618 25.922 0.960466 25.9716 1.09081 25.9955C1.22116 26.0195 1.35496 26.0173 1.48445 25.989C1.61393 25.9608 1.73652 25.9071 1.84507 25.8311C1.95363 25.7551 2.046 25.6583 2.1168 25.5462C3.02479 24.1497 4.26725 23.0021 5.73135 22.2077C7.19545 21.4133 8.83481 20.9972 10.5006 20.9972C12.1663 20.9972 13.8057 21.4133 15.2698 22.2077C16.7339 23.0021 17.9763 24.1497 18.8843 25.5462C19.031 25.7642 19.2575 25.9157 19.515 25.968C19.7725 26.0203 20.0402 25.9691 20.2603 25.8256C20.4804 25.6821 20.6351 25.4577 20.691 25.201C20.747 24.9443 20.6997 24.6758 20.5593 24.4537C19.1517 22.287 17.0812 20.6335 14.6568 19.74ZM5.00055 13.5C5.00055 12.4122 5.32312 11.3488 5.92747 10.4444C6.53182 9.53988 7.3908 8.83494 8.39579 8.41865C9.40078 8.00237 10.5067 7.89345 11.5735 8.10567C12.6404 8.31789 13.6204 8.84171 14.3896 9.6109C15.1588 10.3801 15.6827 11.3601 15.8949 12.427C16.1071 13.4939 15.9982 14.5998 15.5819 15.6048C15.1656 16.6097 14.4607 17.4687 13.5562 18.0731C12.6517 18.6774 11.5883 19 10.5006 19C9.04237 18.9983 7.64438 18.4183 6.61329 17.3873C5.5822 16.3562 5.0022 14.9582 5.00055 13.5ZM31.2681 25.8375C31.0459 25.9823 30.7754 26.033 30.5159 25.9784C30.2564 25.9238 30.0292 25.7683 29.8843 25.5462C28.9774 24.1489 27.7351 23.0008 26.2707 22.2067C24.8063 21.4126 23.1664 20.9978 21.5006 21C21.2353 21 20.981 20.8946 20.7934 20.7071C20.6059 20.5196 20.5006 20.2652 20.5006 20C20.5006 19.7348 20.6059 19.4804 20.7934 19.2929C20.981 19.1053 21.2353 19 21.5006 19C22.3105 18.9992 23.1103 18.8196 23.8428 18.4739C24.5753 18.1282 25.2224 17.625 25.7378 17.0002C26.2533 16.3754 26.6244 15.6445 26.8246 14.8597C27.0249 14.0749 27.0493 13.2555 26.8962 12.4602C26.743 11.6648 26.4161 10.9131 25.9388 10.2587C25.4615 9.60437 24.8455 9.0635 24.1349 8.67478C23.4243 8.28606 22.6367 8.05909 21.8282 8.01007C21.0197 7.96106 20.2104 8.09121 19.4581 8.39124C19.3354 8.44427 19.2033 8.47217 19.0697 8.4733C18.9361 8.47443 18.8036 8.44876 18.68 8.39782C18.5565 8.34687 18.4444 8.27168 18.3504 8.17668C18.2564 8.08168 18.1824 7.96881 18.1328 7.84473C18.0831 7.72065 18.0589 7.58788 18.0614 7.45426C18.064 7.32065 18.0933 7.1889 18.1476 7.06681C18.2019 6.94471 18.2802 6.83474 18.3777 6.7434C18.4753 6.65205 18.5902 6.58119 18.7156 6.53499C20.4374 5.84831 22.3525 5.82359 24.0915 6.46562C25.8304 7.10766 27.27 8.37094 28.1325 10.0118C28.9951 11.6526 29.2194 13.5547 28.7622 15.3511C28.305 17.1476 27.1987 18.7111 25.6568 19.74C28.0812 20.6335 30.1517 22.287 31.5593 24.4537C31.7041 24.6759 31.7548 24.9464 31.7002 25.2059C31.6456 25.4654 31.4901 25.6926 31.2681 25.8375Z" fill="#995C00"/>
</svg>
